<?xml version="1.0" encoding="UTF-8"?>
<svg version="1.1" xmlns="http://www.w3.org/2000/svg" width="512" height="512">
<path d="M0 0 C0.80537007 -0.00495952 1.61074014 -0.00991903 2.44051537 -0.01502883 C5.13828071 -0.02797868 7.8355506 -0.01960222 10.53332806 -0.01129913 C12.48740146 -0.01618832 14.44147197 -0.02237826 16.39553756 -0.02975702 C21.76480536 -0.04617611 27.13392652 -0.04383457 32.50321066 -0.03838205 C38.29408076 -0.03571429 44.08491155 -0.05023892 49.8757658 -0.06247711 C61.2207563 -0.08354414 72.56569571 -0.08807123 83.91070346 -0.08628923 C93.13147242 -0.08498222 102.35222542 -0.08878263 111.57299137 -0.09621429 C114.22782808 -0.09831346 116.8826648 -0.10041106 119.53750151 -0.10250711 C120.19751352 -0.10303111 120.85752553 -0.1035551 121.53753791 -0.10409497 C140.10053851 -0.11867793 158.66353341 -0.12696092 177.22653961 -0.12234497 C177.92630108 -0.12217302 178.62606255 -0.12200106 179.34702891 -0.1218239 C182.89365786 -0.12093501 186.44028681 -0.1199902 189.98691574 -0.11902589 C190.69128079 -0.11883485 191.39564584 -0.11864382 192.12135529 -0.118447 C193.5457527 -0.11805991 194.97015012 -0.11766958 196.39454753 -0.11727602 C218.55622207 -0.11130652 240.71779218 -0.12674215 262.87944317 -0.15888214 C287.78169202 -0.19496611 312.68387466 -0.2142908 337.5861513 -0.20934343 C350.7700601 -0.20709779 363.95386537 -0.21235592 377.13775349 -0.23723602 C388.361895 -0.25823723 399.58587623 -0.26185276 410.8100243 -0.24293643 C416.53684771 -0.23377137 422.26337217 -0.23265953 427.99017239 -0.25329208 C433.23408648 -0.27197595 438.47745623 -0.26752719 443.72134944 -0.24474627 C445.6169995 -0.24055402 447.51269109 -0.24478146 449.40829728 -0.25834221 C460.5830773 -0.33283118 469.27756874 -0.1053788 478.20146465 7.44561005 C478.97490215 8.40467255 478.97490215 8.40467255 479.76396465 9.38311005 C480.56833965 10.34217255 480.56833965 10.34217255 481.38896465 11.32061005 C485.89598232 18.08113654 485.53327013 25.5778649 484.76396465 33.38311005 C482.72065149 40.37051129 478.85048673 45.46255818 472.76396465 49.38311005 C463.85851802 53.48185923 454.49411063 52.80120329 444.89921856 52.76406097 C442.95920645 52.76751939 441.0191963 52.77228519 439.07919025 52.77824271 C433.7581066 52.79075698 428.43718452 52.7845803 423.11610031 52.77528405 C417.37369032 52.7684957 411.63130809 52.77897374 405.88890362 52.78722382 C394.64344247 52.80056559 383.39804138 52.79768141 372.15257788 52.78898589 C363.01337122 52.78221152 353.8741814 52.78129157 344.73497295 52.78455734 C342.78407015 52.78524689 342.78407015 52.78524689 340.79375517 52.78595037 C338.15163056 52.78690954 335.50950594 52.78788218 332.86738133 52.78886814 C308.79690636 52.79717945 284.72646297 52.78855942 260.65599313 52.77284035 C238.68871089 52.75860384 216.72148082 52.75987773 194.75419903 52.77422333 C170.06619654 52.79029183 145.3782241 52.79659935 120.69021702 52.78738654 C118.0577968 52.78643089 115.42537658 52.78548777 112.79295635 52.78455734 C111.49774583 52.78409452 110.2025353 52.78363169 108.86807597 52.78315484 C99.73955404 52.78056426 90.61105061 52.78493741 81.48253155 52.791996 C70.35834957 52.80040863 59.2342311 52.79813579 48.1100564 52.78215377 C42.43404647 52.77426793 36.75814245 52.7711849 31.08213329 52.78110123 C25.88595975 52.79004197 20.68999025 52.78512531 15.49383521 52.76916857 C13.61441619 52.76581817 11.73497992 52.76752065 9.85557199 52.77479593 C-12.67167973 52.85530889 -12.67167973 52.85530889 -20.6618166 45.21904755 C-26.78434431 38.07863061 -28.01082309 31.16872591 -27.6461916 21.87529755 C-26.72916693 14.06748751 -23.35778906 9.98570451 -17.5290041 4.9260788 C-11.79074775 1.06473083 -6.85275164 -0.05981044 0 0 Z " fill="#000000" transform="translate(27.236035346984863,230.61688995361328)"/>
</svg>
