<?xml version="1.0" encoding="UTF-8"?>
<svg version="1.1" xmlns="http://www.w3.org/2000/svg" width="512" height="512">
<path d="M0 0 C0.78259186 -0.00979385 1.56518372 -0.01958771 2.37149048 -0.02967834 C41.64429299 -0.4194714 77.66498657 6.58942518 112.50390625 25.23828125 C113.40834473 25.71950439 113.40834473 25.71950439 114.33105469 26.21044922 C128.69999878 33.92797538 141.23900592 43.55594871 153.50390625 54.23828125 C154.27734375 54.88796875 155.05078125 55.53765625 155.84765625 56.20703125 C159.8268234 59.57401884 163.31379662 63.12257705 166.67578125 67.10546875 C167.92138473 68.55867281 169.20489683 69.9800271 170.51953125 71.37109375 C202.01339202 104.79083809 222.42365214 154.62205976 222.70703125 200.65625 C222.71409088 201.42744675 222.72115051 202.19864349 222.72842407 202.99320984 C222.84570287 219.58107726 222.9241826 235.92973984 219.50390625 252.23828125 C219.20589111 253.66986572 219.20589111 253.66986572 218.90185547 255.13037109 C214.49081309 275.60619853 207.46018906 294.82161034 197.50390625 313.23828125 C197.18454102 313.83688965 196.86517578 314.43549805 196.53613281 315.05224609 C190.13779471 326.96874482 182.59150733 338.19409058 173.50390625 348.23828125 C175.10008882 352.19053708 177.83731071 354.84041652 180.81811523 357.77954102 C181.63935584 358.60122819 181.63935584 358.60122819 182.47718716 359.43951511 C184.31341845 361.27435716 186.15669793 363.101951 188 364.9296875 C189.31767372 366.24352305 190.63489293 367.55781458 191.95169067 368.87252808 C194.78844388 371.70295729 197.6282754 374.53024866 200.4704895 377.35519409 C204.96291912 381.82060502 209.44773386 386.29361095 213.93139648 390.76782227 C223.44967694 400.26389118 232.97636317 409.75150705 242.50390625 419.23828125 C252.78901834 429.47938278 263.07269982 439.72189544 273.34665394 449.97419262 C277.80574246 454.4233038 282.2696661 458.8674893 286.73731995 463.30799866 C289.51350127 466.06928115 292.28555071 468.83468297 295.05648422 471.60123062 C296.34392623 472.88492252 297.63309895 474.16688128 298.9241066 475.44698715 C300.68393837 477.19242225 302.43752799 478.94389941 304.18969727 480.69702148 C304.70389441 481.20402871 305.21809156 481.71103594 305.74787045 482.23340702 C310.02054477 486.53109456 311.79312572 489.48609765 311.87890625 495.55078125 C311.75451715 501.03853588 310.93090558 503.93256414 307.50390625 508.23828125 C302.68328919 511.99836256 299.07938489 512.68167749 293.03125 512.671875 C286.94119191 511.62705823 282.85887908 508.0263215 278.65725708 503.75239563 C277.8226479 502.92163137 277.8226479 502.92163137 276.97117794 502.07408398 C275.11698132 500.22481101 273.27368027 498.36505422 271.43017578 496.50512695 C270.09990301 495.17400761 268.76896858 493.84354922 267.43742371 492.51370239 C263.82990634 488.9070452 260.23170885 485.29121801 256.63511515 481.67367196 C252.87286432 477.89265827 249.10210736 474.12014723 245.33224487 470.34672546 C238.19717996 463.20233898 231.06979646 456.05034005 223.94514167 448.89557379 C215.8325837 440.74947543 207.71149825 432.61190124 199.58968568 424.4750315 C182.88492075 407.73891497 166.19089203 390.99212344 149.50390625 374.23828125 C145.86270994 375.97276023 143.02410928 378.13605012 139.87890625 380.67578125 C95.82939891 415.27656428 38.44786537 428.46304524 -16.68847656 422.46240234 C-20.99596133 421.88844565 -25.24259364 421.12482538 -29.49609375 420.23828125 C-30.92985352 419.94026611 -30.92985352 419.94026611 -32.39257812 419.63623047 C-52.86649725 415.22488734 -72.0810601 408.19367894 -90.49609375 398.23828125 C-91.09470215 397.91891602 -91.69331055 397.59955078 -92.31005859 397.27050781 C-106.68490448 389.55220681 -119.22691831 379.92433727 -131.49609375 369.23828125 C-132.26953125 368.58859375 -133.04296875 367.93890625 -133.83984375 367.26953125 C-137.8190109 363.90254366 -141.30598412 360.35398545 -144.66796875 356.37109375 C-145.91357223 354.91788969 -147.19708433 353.4965354 -148.51171875 352.10546875 C-180.15475364 318.52742812 -200.42471339 268.77575115 -200.69921875 222.56640625 C-200.70623306 221.77009796 -200.71324738 220.97378967 -200.72047424 220.15335083 C-200.73787384 217.59826935 -200.74432646 215.0434198 -200.74609375 212.48828125 C-200.74676849 211.61423645 -200.74744324 210.74019165 -200.74813843 209.83966064 C-200.73206312 196.73753555 -200.23216422 184.09188792 -197.49609375 171.23828125 C-197.32980469 170.40345215 -197.16351563 169.56862305 -196.9921875 168.70849609 C-188.51862765 126.69376185 -167.63305825 90.37524575 -137.49609375 60.23828125 C-136.8103125 59.50609375 -136.12453125 58.77390625 -135.41796875 58.01953125 C-123.57919649 45.58456183 -109.28391681 35.83629033 -94.49609375 27.23828125 C-93.58875488 26.70726807 -93.58875488 26.70726807 -92.66308594 26.16552734 C-65.22873572 10.30481103 -31.77661928 0.33256709 0 0 Z M-68.49609375 51.23828125 C-69.1597998 51.56054688 -69.82350586 51.8828125 -70.50732422 52.21484375 C-80.1965731 56.98076272 -88.91932284 62.69627164 -97.49609375 69.23828125 C-98.39457031 69.91117188 -99.29304688 70.5840625 -100.21875 71.27734375 C-137.61333483 100.49362571 -160.5112856 143.35312352 -167.02661133 190.03979492 C-171.15457307 223.84116037 -165.40864476 258.70198829 -150.49609375 289.23828125 C-150.15707031 289.93550293 -149.81804687 290.63272461 -149.46875 291.35107422 C-144.37323539 301.69375565 -138.51583628 311.10078656 -131.49609375 320.23828125 C-130.82449219 321.13417969 -130.15289062 322.03007812 -129.4609375 322.953125 C-100.2971373 360.32100001 -57.32383014 383.26148649 -10.69458008 389.76879883 C23.10678537 393.89676057 57.96761329 388.15083226 88.50390625 373.23828125 C89.20112793 372.89925781 89.89834961 372.56023437 90.61669922 372.2109375 C133.56029218 351.05397675 165.92897842 312.9961181 181.31640625 267.80078125 C195.97666568 223.15174086 192.06462968 174.29163112 171.50390625 132.23828125 C171.18164062 131.5745752 170.859375 130.91086914 170.52734375 130.22705078 C165.76142478 120.5378019 160.04591586 111.81505216 153.50390625 103.23828125 C152.83101563 102.33980469 152.158125 101.44132812 151.46484375 100.515625 C122.21529032 63.07845526 79.40326077 40.24292501 32.69799805 33.70556641 C-2.14436216 29.46252142 -37.11535306 35.8956098 -68.49609375 51.23828125 Z " fill="#000000" transform="translate(200.49609375,-0.23828125)"/>
</svg>
